<?xml version="1.0" encoding="utf-8"?>
<!-- Generator: Adobe Illustrator 16.2.0, SVG Export Plug-In . SVG Version: 6.00 Build 0)  -->
<!DOCTYPE svg PUBLIC "-//W3C//DTD SVG 1.1//EN" "http://www.w3.org/Graphics/SVG/1.1/DTD/svg11.dtd">
<svg version="1.1" xmlns="http://www.w3.org/2000/svg" xmlns:xlink="http://www.w3.org/1999/xlink" x="0px" y="0px" width="32px"
	 height="32px" viewBox="0 0 32 32" enable-background="new 0 0 32 32" xml:space="preserve">
<g id="Layer_2" display="none">
	<rect x="-11.5" display="inline" fill="#ED1849" width="55" height="32"/>
</g>
<g id="Layer_1">
	<g>
		<path fill="none" d="M8.546,30.725l0.222-0.592c-0.206-0.111-0.401-0.236-0.602-0.355v0.947H8.546z"/>
		<path fill="none" d="M30.035,28.174l-1.19-3.219c-0.503,0.771-1.076,1.492-1.706,2.16L30.035,28.174z"/>
		<path fill="#FFFFFF" d="M27.364,6.35c-1.242-1.376-2.724-2.526-4.389-3.38l1.642,4.404L27.364,6.35z"/>
		<path fill="#FFFFFF" d="M5.972,5.019c-3.175,2.748-5.207,6.772-5.297,11.279l5.297-1.974V5.019z"/>
		<path fill="#FFFFFF" d="M30.201,22.355c0.719-1.777,1.124-3.713,1.124-5.747c0-3.123-0.938-6.024-2.542-8.447L25.38,9.42
			L30.201,22.355z"/>
		<path fill="#FFFFFF" d="M16.093,10.551l3.322-8.878c-1.103-0.251-2.244-0.397-3.423-0.397c-2.863,0-5.533,0.799-7.826,2.165
			v10.066L16.093,10.551z"/>
		<path fill="#FFFFFF" d="M0.969,19.686c0.688,3.377,2.494,6.34,5.003,8.512v-6.639L0.969,19.686z"/>
		<path fill="#FFFFFF" d="M10.927,30.725h11.059c1.188-0.506,2.289-1.168,3.301-1.941l-12.009-4.492L10.927,30.725z"/>
		<path fill="#FFFFFF" d="M20.955,2.922c-0.287,1.076-0.854,2.747-1.701,5.014L18.646,9.6l3.98-1.484
			C21.835,5.909,21.276,4.173,20.955,2.922z"/>
		<path fill="#FFFFFF" d="M8.931,15.504c-0.263,0.098-0.512,0.189-0.764,0.282v4.397l3.804,1.389l3.123-8.347L8.931,15.504z"/>
		<path fill="#FFFFFF" d="M5.972,19.381v-2.805c-1.792,0.627-3.236,1.083-4.315,1.36C2.615,18.191,4.071,18.682,5.972,19.381z"/>
		<path fill="#FFFFFF" d="M11.239,23.527l-3.072-1.148v7.398c0.2,0.119,0.396,0.244,0.602,0.355L11.239,23.527z"/>
		<path fill="#FFFFFF" d="M23.374,10.163l-5.704,2.11L14,22.314l13.139,4.801c0.63-0.668,1.203-1.389,1.706-2.16l-5.458-14.759
			C23.383,10.184,23.379,10.174,23.374,10.163z"/>
		<path fill="#FFFFFF" d="M19.254,7.936c0.848-2.267,1.414-3.938,1.701-5.014c0.321,1.251,0.88,2.986,1.671,5.194L18.646,9.6
			L19.254,7.936z M5.972,19.381c-1.901-0.699-3.357-1.189-4.315-1.445c1.079-0.277,2.523-0.732,4.315-1.36V19.381z M11.97,21.572
			l-3.804-1.389v-4.397c0.252-0.093,0.501-0.184,0.764-0.282l6.163-2.279L11.97,21.572z"/>
	</g>
</g>
</svg>
